#Comment line ignore any data following # character 
#Hierarchical Translation and Rotation (.htr) file 
[Header]	
#Header keywords are followed by a single value 
FileType HTR		#Single word string
DataType HTRS		#Translation followed by rotation and scale data
FileVersion 1		#integer
NumSegments 84		#integer
NumFrames 2		#integer
DataFrameRate 30		#integer, data frame rate in this file
EulerRotationOrder ZYX
CalibrationUnits mm
RotationUnits Degrees
GlobalAxisofGravity Y
BoneLengthAxis Y
ScaleFactor 1.00
[SegmentNames&Hierarchy]
#CHILD	PARENT
MASTER GLOBAL
root MASTER
chest root
L_mid_tent01 root
R_mid_tent01 root
spine01 root
Bip01_Neck chest
L_humerus chest
R_humerus chest
weapon_bone chest
Bip01_Head Bip01_Neck
eye_left_bone Bip01_Head
eye_right_bone Bip01_Head
L_forearm L_humerus
L_front_hand L_forearm
L_weapon_bone L_forearm
L_front_hand01_01 L_front_hand
L_front_hand02_01 L_front_hand
L_front_hand03_01 L_front_hand
L_front_hand01_02 L_front_hand01_01
L_front_hand02_02 L_front_hand02_01
L_front_hand03_02 L_front_hand03_01
R_forearm R_humerus
R_front_hand R_forearm
R_weapon_bone R_forearm
R_front_hand01_01 R_front_hand
R_front_hand02_01 R_front_hand
R_front_hand03_01 R_front_hand
R_front_hand01_02 R_front_hand01_01
R_front_hand02_02 R_front_hand02_01
R_front_hand03_02 R_front_hand03_01
null_rope01_connect L_mid_tent01
Rope1_Seg01 null_rope01_connect
Rope1_Seg02 Rope1_Seg01
Rope1_Seg03 Rope1_Seg02
Rope1_Seg04 Rope1_Seg03
Rope1_Seg05 Rope1_Seg04
Rope1_Seg06 Rope1_Seg05
Rope1_Seg07 Rope1_Seg06
Rope1_Seg09 Rope1_Seg07
L_mid_hand01 Rope1_Seg09
L_mid_hand02 Rope1_Seg09
L_mid_hand03 Rope1_Seg09
null_rope02_connect R_mid_tent01
Rope2_Seg01 null_rope02_connect
Rope2_Seg02 Rope2_Seg01
Rope2_Seg03 Rope2_Seg02
Rope2_Seg04 Rope2_Seg03
Rope2_Seg05 Rope2_Seg04
Rope2_Seg06 Rope2_Seg05
Rope2_Seg07 Rope2_Seg06
Rope2_Seg09 Rope2_Seg07
R_mid_hand01 Rope2_Seg09
R_mid_hand02 Rope2_Seg09
R_mid_hand03 Rope2_Seg09
spine02 spine01
spine03 spine02
pelvis spine03
null_rope03_connect pelvis
null_rope04_connect pelvis
Rope3_Seg01 null_rope03_connect
Rope3_Seg02 Rope3_Seg01
Rope3_Seg03 Rope3_Seg02
Rope3_Seg04 Rope3_Seg03
Rope3_Seg05 Rope3_Seg04
Rope3_Seg06 Rope3_Seg05
Rope3_Seg07 Rope3_Seg06
Rope3_Seg08 Rope3_Seg07
Rope3_Seg09 Rope3_Seg08
R_rear_hand01 Rope3_Seg09
R_rear_hand02 Rope3_Seg09
R_rear_hand03 Rope3_Seg09
Rope4_Seg01 null_rope04_connect
Rope4_Seg02 Rope4_Seg01
Rope4_Seg03 Rope4_Seg02
Rope4_Seg04 Rope4_Seg03
Rope4_Seg05 Rope4_Seg04
Rope4_Seg06 Rope4_Seg05
Rope4_Seg07 Rope4_Seg06
Rope4_Seg08 Rope4_Seg07
Rope4_Seg09 Rope4_Seg08
L_rear_hand01 Rope4_Seg09
L_rear_hand02 Rope4_Seg09
L_rear_hand03 Rope4_Seg09
[BasePosition]
#SegmentName Tx, Ty, Tz, Rx, Ry, Rz, BoneLength
MASTER 0.000000 0.000000 0.000000 -90.000000 0.000000 0.000000 10.000000 
root 0.000000 0.000000 0.000000 0.000000 0.000000 0.000000 10.000000 
chest 0.000000 0.000000 0.000000 0.000000 0.000000 0.000000 10.000000 
L_mid_tent01 0.000000 0.000000 0.000000 0.000000 0.000000 0.000000 10.000000 
R_mid_tent01 0.000000 0.000000 0.000000 0.000000 0.000000 0.000000 10.000000 
spine01 0.000000 0.000000 0.000000 0.000000 0.000000 0.000000 10.000000 
Bip01_Neck 0.000000 0.000000 0.000000 0.000000 0.000000 0.000000 10.000000 
L_humerus 0.000000 0.000000 0.000000 0.000000 0.000000 0.000000 10.000000 
R_humerus 0.000000 0.000000 0.000000 0.000000 0.000000 0.000000 10.000000 
weapon_bone 0.000000 0.000000 0.000000 0.000000 0.000000 0.000000 10.000000 
Bip01_Head 0.000000 0.000000 0.000000 0.000000 0.000000 0.000000 10.000000 
eye_left_bone 0.000000 0.000000 0.000000 0.000000 0.000000 0.000000 10.000000 
eye_right_bone 0.000000 0.000000 0.000000 0.000000 0.000000 0.000000 10.000000 
L_forearm 0.000000 0.000000 0.000000 0.000000 0.000000 0.000000 10.000000 
L_front_hand 0.000000 0.000000 0.000000 0.000000 0.000000 0.000000 10.000000 
L_weapon_bone 0.000000 0.000000 0.000000 0.000000 0.000000 0.000000 10.000000 
L_front_hand01_01 0.000000 0.000000 0.000000 0.000000 0.000000 0.000000 10.000000 
L_front_hand02_01 0.000000 0.000000 0.000000 0.000000 0.000000 0.000000 10.000000 
L_front_hand03_01 0.000000 0.000000 0.000000 0.000000 0.000000 0.000000 10.000000 
L_front_hand01_02 0.000000 0.000000 0.000000 0.000000 0.000000 0.000000 10.000000 
L_front_hand02_02 0.000000 0.000000 0.000000 0.000000 0.000000 0.000000 10.000000 
L_front_hand03_02 0.000000 0.000000 0.000000 0.000000 0.000000 0.000000 10.000000 
R_forearm 0.000000 0.000000 0.000000 0.000000 0.000000 0.000000 10.000000 
R_front_hand 0.000000 0.000000 0.000000 0.000000 0.000000 0.000000 10.000000 
R_weapon_bone 0.000000 0.000000 0.000000 0.000000 0.000000 0.000000 10.000000 
R_front_hand01_01 0.000000 0.000000 0.000000 0.000000 0.000000 0.000000 10.000000 
R_front_hand02_01 0.000000 0.000000 0.000000 0.000000 0.000000 0.000000 10.000000 
R_front_hand03_01 0.000000 0.000000 0.000000 0.000000 0.000000 0.000000 10.000000 
R_front_hand01_02 0.000000 0.000000 0.000000 0.000000 0.000000 0.000000 10.000000 
R_front_hand02_02 0.000000 0.000000 0.000000 0.000000 0.000000 0.000000 10.000000 
R_front_hand03_02 0.000000 0.000000 0.000000 0.000000 0.000000 0.000000 10.000000 
null_rope01_connect 0.000000 0.000000 0.000000 0.000000 0.000000 0.000000 10.000000 
Rope1_Seg01 0.000000 0.000000 0.000000 0.000000 0.000000 0.000000 10.000000 
Rope1_Seg02 0.000000 0.000000 0.000000 0.000000 0.000000 0.000000 10.000000 
Rope1_Seg03 0.000000 0.000000 0.000000 0.000000 0.000000 0.000000 10.000000 
Rope1_Seg04 0.000000 0.000000 0.000000 0.000000 0.000000 0.000000 10.000000 
Rope1_Seg05 0.000000 0.000000 0.000000 0.000000 0.000000 0.000000 10.000000 
Rope1_Seg06 0.000000 0.000000 0.000000 0.000000 0.000000 0.000000 10.000000 
Rope1_Seg07 0.000000 0.000000 0.000000 0.000000 0.000000 0.000000 10.000000 
Rope1_Seg09 0.000000 0.000000 0.000000 0.000000 0.000000 0.000000 10.000000 
L_mid_hand01 0.000000 0.000000 0.000000 0.000000 0.000000 0.000000 10.000000 
L_mid_hand02 0.000000 0.000000 0.000000 0.000000 0.000000 0.000000 10.000000 
L_mid_hand03 0.000000 0.000000 0.000000 0.000000 0.000000 0.000000 10.000000 
null_rope02_connect 0.000000 0.000000 0.000000 0.000000 0.000000 0.000000 10.000000 
Rope2_Seg01 0.000000 0.000000 0.000000 0.000000 0.000000 0.000000 10.000000 
Rope2_Seg02 0.000000 0.000000 0.000000 0.000000 0.000000 0.000000 10.000000 
Rope2_Seg03 0.000000 0.000000 0.000000 0.000000 0.000000 0.000000 10.000000 
Rope2_Seg04 0.000000 0.000000 0.000000 0.000000 0.000000 0.000000 10.000000 
Rope2_Seg05 0.000000 0.000000 0.000000 0.000000 0.000000 0.000000 10.000000 
Rope2_Seg06 0.000000 0.000000 0.000000 0.000000 0.000000 0.000000 10.000000 
Rope2_Seg07 0.000000 0.000000 0.000000 0.000000 0.000000 0.000000 10.000000 
Rope2_Seg09 0.000000 0.000000 0.000000 0.000000 0.000000 0.000000 10.000000 
R_mid_hand01 0.000000 0.000000 0.000000 0.000000 0.000000 0.000000 10.000000 
R_mid_hand02 0.000000 0.000000 0.000000 0.000000 0.000000 0.000000 10.000000 
R_mid_hand03 0.000000 0.000000 0.000000 0.000000 0.000000 0.000000 10.000000 
spine02 0.000000 0.000000 0.000000 0.000000 0.000000 0.000000 10.000000 
spine03 0.000000 0.000000 0.000000 0.000000 0.000000 0.000000 10.000000 
pelvis 0.000000 0.000000 0.000000 0.000000 0.000000 0.000000 10.000000 
null_rope03_connect 0.000000 0.000000 0.000000 0.000000 0.000000 0.000000 10.000000 
null_rope04_connect 0.000000 0.000000 0.000000 0.000000 0.000000 0.000000 10.000000 
Rope3_Seg01 0.000000 0.000000 0.000000 0.000000 0.000000 0.000000 10.000000 
Rope3_Seg02 0.000000 0.000000 0.000000 0.000000 0.000000 0.000000 10.000000 
Rope3_Seg03 0.000000 0.000000 0.000000 0.000000 0.000000 0.000000 10.000000 
Rope3_Seg04 0.000000 0.000000 0.000000 0.000000 0.000000 0.000000 10.000000 
Rope3_Seg05 0.000000 0.000000 0.000000 0.000000 0.000000 0.000000 10.000000 
Rope3_Seg06 0.000000 0.000000 0.000000 0.000000 0.000000 0.000000 10.000000 
Rope3_Seg07 0.000000 0.000000 0.000000 0.000000 0.000000 0.000000 10.000000 
Rope3_Seg08 0.000000 0.000000 0.000000 0.000000 0.000000 0.000000 10.000000 
Rope3_Seg09 0.000000 0.000000 0.000000 0.000000 0.000000 0.000000 10.000000 
R_rear_hand01 0.000000 0.000000 0.000000 0.000000 0.000000 0.000000 10.000000 
R_rear_hand02 0.000000 0.000000 0.000000 0.000000 0.000000 0.000000 10.000000 
R_rear_hand03 0.000000 0.000000 0.000000 0.000000 0.000000 0.000000 10.000000 
Rope4_Seg01 0.000000 0.000000 0.000000 0.000000 0.000000 0.000000 10.000000 
Rope4_Seg02 0.000000 0.000000 0.000000 0.000000 0.000000 0.000000 10.000000 
Rope4_Seg03 0.000000 0.000000 0.000000 0.000000 0.000000 0.000000 10.000000 
Rope4_Seg04 0.000000 0.000000 0.000000 0.000000 0.000000 0.000000 10.000000 
Rope4_Seg05 0.000000 0.000000 0.000000 0.000000 0.000000 0.000000 10.000000 
Rope4_Seg06 0.000000 0.000000 0.000000 0.000000 0.000000 0.000000 10.000000 
Rope4_Seg07 0.000000 0.000000 0.000000 0.000000 0.000000 0.000000 10.000000 
Rope4_Seg08 0.000000 0.000000 0.000000 0.000000 0.000000 0.000000 10.000000 
Rope4_Seg09 0.000000 0.000000 0.000000 0.000000 0.000000 0.000000 10.000000 
L_rear_hand01 0.000000 0.000000 0.000000 0.000000 0.000000 0.000000 10.000000 
L_rear_hand02 0.000000 0.000000 0.000000 0.000000 0.000000 0.000000 10.000000 
L_rear_hand03 0.000000 0.000000 0.000000 0.000000 0.000000 0.000000 10.000000 
#Beginning of Data. Separated by tabs
#Fr	Tx	Ty	Tz	Rx	Ry	Rz	SF
[MASTER]
15 -0.000270 1400.415161 0.000062 0.001660 0.001660 0.001660 1400.415161
16 -0.000290 1500.444946 0.000066 0.001660 0.001660 0.001660 1500.444946
[root]
15 -36.548389 21.556395 1454.577026 -91.724701 -11.580355 -89.471634 1455.195801
16 -33.722797 21.115717 1456.165405 -91.724411 -11.580056 -89.471642 1456.708984
[chest]
15 -84.512650 -34.090519 0.000000 -2.167127 -0.060685 166.802490 91.129311
16 -84.512650 -34.090519 0.000000 -2.168131 -0.046250 167.175690 91.129311
[L_mid_tent01]
15 27.299107 22.179153 -249.918701 -19.912649 7.335607 15.943945 252.381683
16 27.299109 22.179144 -249.918701 -20.016689 8.084903 15.468265 252.381683
[R_mid_tent01]
15 23.228794 24.509907 226.238495 -167.179031 -14.841063 26.256643 228.744751
16 23.228794 24.509907 226.238495 -166.978149 -15.552571 26.072865 228.744751
[spine01]
15 -0.361383 -0.195265 0.000000 -0.000001 -0.000007 22.052340 0.410763
16 -0.361383 -0.195265 0.000000 -0.000001 -0.000007 22.052340 0.410763
[Bip01_Neck]
15 165.484543 71.581718 0.000119 176.643677 -1.657967 43.431911 180.302734
16 165.484543 71.581718 0.000119 176.643677 -1.657967 43.431911 180.302734
[L_humerus]
15 -13.983130 -135.272980 -120.471481 -5.092790 77.372658 80.294212 181.680161
16 -13.983130 -135.272980 -120.471481 -5.001015 76.012833 81.124268 181.680161
[R_humerus]
15 -13.983309 -135.273102 125.287651 38.536705 -75.038017 56.607918 184.909012
16 -13.983309 -135.273102 125.287651 36.353706 -74.261642 58.874107 184.909012
[weapon_bone]
15 235.964890 -300.705902 0.000000 0.000000 -89.951546 -128.212341 382.234833
16 235.964890 -300.705902 0.000000 0.000000 -89.951546 -128.212341 382.234833
[Bip01_Head]
15 213.472534 185.636780 12.792757 4.442735 -1.093903 -43.898045 283.187531
16 213.416885 185.791702 10.791677 4.440357 -0.902637 -43.900562 283.163879
[eye_left_bone]
15 -24.626970 125.451866 -64.772606 0.000000 -90.000000 -99.840431 143.318359
16 -24.626970 125.451866 -64.772606 0.000000 -90.000000 -99.840431 143.318359
[eye_right_bone]
15 -24.626970 125.451866 64.327362 0.000000 -89.965736 80.156380 143.117676
16 -24.626970 125.451866 64.327362 0.000000 -89.965736 80.156380 143.117676
[L_forearm]
15 322.776093 0.000000 -0.000119 0.000396 -0.002314 -109.419975 322.776093
16 322.776093 0.000000 -0.000119 0.000396 -0.002314 -109.419975 322.776093
[L_front_hand]
15 241.149185 -0.042021 -3.300071 -178.667953 -1.835447 -27.422350 241.171753
16 241.149185 -0.042021 -3.300071 -178.667953 -1.835447 -27.422350 241.171753
[L_weapon_bone]
15 156.183838 0.000000 0.000000 0.000014 0.000007 0.000001 156.183838
16 156.183838 0.000000 0.000000 0.000014 0.000007 0.000001 156.183838
[L_front_hand01_01]
15 86.095154 20.947098 -0.655860 -0.274633 -0.532782 65.272827 88.609184
16 86.095154 20.947098 -0.655860 -0.280373 -0.529283 65.613800 88.609184
[L_front_hand02_01]
15 86.935165 -11.437475 24.513514 141.090271 -54.445614 -45.572052 91.046425
16 86.935165 -11.437475 24.513514 141.458649 -54.658344 -46.027485 91.046425
[L_front_hand03_01]
15 86.637497 -14.123976 -20.424902 -141.476303 52.677540 -47.637543 90.126129
16 86.637497 -14.123976 -20.424902 -141.832764 52.885189 -48.080185 90.126129
[L_front_hand01_02]
15 71.020905 -0.000179 0.000030 0.000315 -0.002326 -105.405197 71.020905
16 71.020905 -0.000179 0.000030 0.000315 -0.002326 -105.400543 71.020905
[L_front_hand02_02]
15 71.020927 -0.000119 0.000060 0.000315 -0.002326 -105.405197 71.020927
16 71.020927 -0.000119 0.000060 0.000315 -0.002326 -105.400543 71.020927
[L_front_hand03_02]
15 71.020905 -0.000060 0.000060 0.000315 -0.002326 -105.405197 71.020905
16 71.020905 -0.000060 0.000060 0.000315 -0.002326 -105.400543 71.020905
[R_forearm]
15 322.776428 -0.000060 0.000030 0.202103 0.065158 -108.062805 322.776428
16 322.776428 -0.000060 0.000030 0.202103 0.065158 -108.062805 322.776428
[R_front_hand]
15 238.847015 -0.006795 2.210259 -2.635298 -10.645461 -26.312506 238.857239
16 238.847015 -0.006795 2.210259 -2.635298 -10.645461 -26.312506 238.857239
[R_weapon_bone]
15 155.664093 0.002503 -0.000030 0.003487 0.001180 -90.988930 155.664078
16 155.664093 0.002503 -0.000030 0.003487 0.001180 -90.988930 155.664078
[R_front_hand01_01]
15 87.624611 14.231146 22.918642 -138.456909 -52.798630 42.405624 91.683487
16 87.624611 14.231146 22.918642 -138.672287 -52.939835 42.677601 91.683487
[R_front_hand02_01]
15 89.356956 14.367283 -19.491137 139.300415 51.240429 45.105949 92.579636
16 89.356956 14.367283 -19.491137 139.502045 51.377892 45.363930 92.579636
[R_front_hand03_01]
15 87.286232 -22.307278 -0.143439 0.064051 -0.451784 -62.968163 90.091743
16 87.286232 -22.307278 -0.143439 0.064897 -0.451663 -63.182877 90.091743
[R_front_hand01_02]
15 71.020905 0.000060 0.000119 0.002323 -0.000334 106.381714 71.020905
16 71.020905 0.000060 0.000119 0.002323 -0.000334 106.381714 71.020905
[R_front_hand02_02]
15 71.020844 -0.000030 -0.000119 0.002323 -0.000334 106.381714 71.020836
16 71.020844 -0.000030 -0.000119 0.002323 -0.000334 106.381714 71.020836
[R_front_hand03_02]
15 71.020905 0.000000 0.000030 0.002323 -0.000334 106.381714 71.020905
16 71.020905 0.000000 0.000030 0.002323 -0.000334 106.381714 71.020905
[null_rope01_connect]
15 328.732483 0.000000 -0.000238 -166.414444 -67.240829 -109.110710 328.732483
16 328.732483 0.000000 -0.000238 -164.371872 -66.910172 -110.807518 328.732483
[Rope1_Seg01]
15 -0.000027 0.000011 0.000107 64.835320 -1.810559 -112.830933 0.000111
16 -0.000029 0.000010 0.000114 57.560894 -0.406640 -115.862389 0.000118
[Rope1_Seg02]
15 139.999863 -0.000179 0.000000 2.542736 3.462927 -1.891324 139.999863
16 139.999863 -0.000179 0.000000 4.676319 3.980465 -0.806499 139.999863
[Rope1_Seg03]
15 139.999924 0.000060 -0.000060 -4.725655 0.548980 -4.863478 139.999924
16 139.999924 0.000060 -0.000060 -1.991113 1.860067 -3.850515 139.999924
[Rope1_Seg04]
15 139.999924 -0.000060 -0.000119 2.183300 4.136651 -2.231194 139.999924
16 139.999924 -0.000060 -0.000119 2.714365 4.301437 -1.846993 139.999924
[Rope1_Seg05]
15 139.999832 0.000119 -0.000060 25.345301 14.771939 12.373472 139.999832
16 139.999832 0.000119 -0.000060 24.886843 13.374956 12.606659 139.999832
[Rope1_Seg06]
15 139.999954 0.000119 -0.000060 7.449667 7.460336 2.166820 139.999954
16 139.999954 0.000119 -0.000060 8.261848 7.392206 2.752542 139.999954
[Rope1_Seg07]
15 139.999985 0.000060 0.000000 2.634413 3.363104 0.346267 139.999985
16 139.999985 0.000060 0.000000 2.967137 3.401756 0.545143 139.999985
[Rope1_Seg09]
15 121.602913 0.000119 -0.000089 -89.793175 -1.359789 0.847147 121.602913
16 121.602913 0.000119 -0.000089 -89.793175 -1.359789 0.847147 121.602913
[L_mid_hand01]
15 103.859421 1.038730 8.195221 118.511887 -58.710995 -25.432131 104.187431
16 103.859421 1.038730 8.195221 122.214622 -62.281231 -29.682964 104.187431
[L_mid_hand02]
15 105.572853 -4.139662 -10.864139 -159.626389 40.490177 -59.638344 106.211075
16 105.572853 -4.139662 -10.864139 -163.055801 41.815437 -64.846191 106.211075
[L_mid_hand03]
15 104.641464 17.579376 -3.913581 -9.285485 16.381811 63.801453 106.179977
16 104.641464 17.579376 -3.913581 -8.059158 17.002197 68.062881 106.179977
[null_rope02_connect]
15 328.732849 0.000179 -0.000119 -142.999100 71.757668 -36.471409 328.732849
16 328.732849 0.000179 -0.000119 -142.022827 71.070160 -35.552608 328.732849
[Rope2_Seg01]
15 0.000095 0.000153 0.000053 9.398155 -1.951519 -47.236351 0.000188
16 0.000095 0.000153 0.000057 21.504898 -0.638407 -43.473396 0.000189
[Rope2_Seg02]
15 139.999741 -0.000060 -0.000119 -19.508841 -0.104372 -8.358252 139.999756
16 139.999741 -0.000060 -0.000119 -22.229694 -2.206809 -8.193177 139.999756
[Rope2_Seg03]
15 140.000107 0.000030 0.000000 -2.929449 1.052030 -1.880643 140.000107
16 140.000107 0.000030 0.000000 -4.315967 0.653690 -2.270089 140.000107
[Rope2_Seg04]
15 139.999802 0.000000 -0.000060 -7.860165 2.118476 -5.451049 139.999802
16 139.999802 0.000000 -0.000060 -7.905177 1.010058 -4.575807 139.999802
[Rope2_Seg05]
15 139.999985 -0.000060 0.000119 -16.743660 9.018588 -19.332766 139.999985
16 139.999985 -0.000060 0.000119 -22.966019 6.381177 -23.073921 139.999985
[Rope2_Seg06]
15 139.999893 -0.000030 -0.000119 -5.332883 9.624077 -11.360054 139.999893
16 139.999893 -0.000030 -0.000119 -7.471937 11.108543 -14.858720 139.999893
[Rope2_Seg07]
15 139.999893 0.000060 -0.000060 -1.462176 4.979963 -4.944857 139.999893
16 139.999893 0.000060 -0.000060 -1.666696 5.471754 -5.755137 139.999893
[Rope2_Seg09]
15 121.338966 0.000089 -0.000060 33.793236 -1.359788 -0.847141 121.338966
16 121.338966 0.000089 -0.000060 33.793236 -1.359788 -0.847141 121.338966
[R_mid_hand01]
15 104.680779 11.144459 -10.335981 -34.826839 34.540043 41.908749 105.778534
16 104.680779 11.144459 -10.335981 -32.057350 37.073116 46.635818 105.778534
[R_mid_hand02]
15 104.070427 2.443552 8.231699 68.824303 -46.622643 16.260368 104.424065
16 104.070427 2.443552 8.231699 66.850014 -50.884758 18.890066 104.424065
[R_mid_hand03]
15 106.028137 -11.221827 -5.996406 -170.883774 12.973575 -51.735550 106.788818
16 106.028137 -11.221827 -5.996406 -171.959641 13.662919 -56.404911 106.788818
[spine02]
15 129.756927 0.001550 0.000119 0.360061 -4.044797 -12.915058 129.756927
16 129.756927 0.001550 0.000119 0.360061 -4.044797 -12.915058 129.756927
[spine03]
15 78.614006 0.081738 -4.898995 1.896495 3.831288 16.473045 78.766541
16 78.613998 0.081737 -4.898994 1.896495 3.831288 16.473045 78.766541
[pelvis]
15 169.435242 0.051022 0.000000 -0.060465 -0.180225 14.087930 169.435257
16 169.435242 0.051022 0.000000 -0.060465 -0.180225 14.087930 169.435257
[null_rope03_connect]
15 -1.257226 -2.466202 137.391083 155.834946 -89.385155 -93.935631 137.418976
16 -1.257226 -2.466202 137.391083 155.799332 -89.385155 -93.900269 137.418976
[null_rope04_connect]
15 -1.259640 -2.480268 -137.844437 155.834946 -89.385155 -93.935631 137.872513
16 -1.259640 -2.480268 -137.844437 155.799332 -89.385155 -93.900269 137.872513
[Rope3_Seg01]
15 -0.000026 -0.000107 0.000000 7.219745 33.134930 -100.029457 0.000110
16 -0.000026 -0.000114 0.000000 8.014579 34.490379 -98.438690 0.000117
[Rope3_Seg02]
15 139.999924 -0.000119 0.000060 0.587885 -2.477103 7.731803 139.999924
16 139.999924 -0.000119 0.000060 0.390751 -2.528294 7.745826 139.999924
[Rope3_Seg03]
15 139.999924 -0.000119 0.000119 -0.235281 -3.255223 10.755646 139.999924
16 139.999924 -0.000119 0.000119 -0.500199 -3.349711 10.674468 139.999924
[Rope3_Seg04]
15 139.999924 0.000119 0.000000 -6.291423 -6.518135 26.681858 139.999924
16 139.999924 0.000119 0.000000 -7.070440 -6.320528 27.206547 139.999924
[Rope3_Seg05]
15 139.999924 -0.000238 0.000060 0.129482 -1.065016 -1.513017 139.999924
16 139.999924 -0.000238 0.000060 -1.654968 -2.988877 2.608070 139.999924
[Rope3_Seg06]
15 139.999893 -0.000119 -0.000060 1.957211 7.082827 -29.951466 139.999893
16 139.999893 -0.000119 -0.000060 3.196966 7.193940 -33.298428 139.999893
[Rope3_Seg07]
15 139.999771 0.000060 -0.000119 -0.623417 1.871700 -11.742142 139.999771
16 139.999771 0.000060 -0.000119 -0.994354 1.802382 -15.613866 139.999771
[Rope3_Seg08]
15 139.999985 -0.000060 0.000000 -0.403284 0.893132 -5.572727 139.999985
16 139.999985 -0.000060 0.000000 -0.715321 0.748025 -6.614381 139.999985
[Rope3_Seg09]
15 90.185997 -0.000179 -0.000060 89.793228 -1.359877 -0.847183 90.185997
16 90.185997 -0.000179 -0.000060 89.793228 -1.359877 -0.847183 90.185997
[R_rear_hand01]
15 103.366196 -6.073594 -10.757982 -167.736008 21.565809 -48.800846 104.101845
16 103.366196 -6.073594 -10.757982 -169.706436 22.536156 -54.046982 104.101845
[R_rear_hand02]
15 100.509819 12.039542 -7.992327 -27.197788 28.737711 46.115414 101.543350
16 100.509819 12.039542 -7.992327 -24.637733 30.906170 51.254921 101.543350
[R_rear_hand03]
15 101.539970 5.215704 5.435467 81.295578 -49.108295 10.466789 101.819031
16 101.539970 5.215704 5.435467 80.293877 -53.997543 11.741186 101.819031
[Rope4_Seg01]
15 -0.000012 -0.000023 -0.000153 -102.461441 23.990841 -108.970222 0.000155
16 -0.000012 -0.000019 -0.000153 -102.565506 24.841084 -108.752274 0.000154
[Rope4_Seg02]
15 139.999985 0.000060 0.000119 -0.420171 -3.967887 0.748628 139.999985
16 139.999985 0.000060 0.000119 -0.419177 -4.166071 0.685021 139.999985
[Rope4_Seg03]
15 139.999924 0.000000 -0.000238 -0.290216 -4.315071 0.784674 139.999924
16 139.999924 0.000000 -0.000238 -0.278930 -4.538041 0.710608 139.999924
[Rope4_Seg04]
15 139.999985 0.000000 0.000119 -0.233438 -8.902148 1.681714 139.999985
16 139.999985 0.000000 0.000119 -0.090905 -10.840276 1.237387 139.999985
[Rope4_Seg05]
15 139.999802 -0.000060 -0.000119 0.181255 -3.560789 0.589799 139.999802
16 139.999802 -0.000060 -0.000119 0.268038 -3.516915 0.671318 139.999802
[Rope4_Seg06]
15 139.999924 0.000000 0.000060 -0.147884 8.976179 -1.905088 139.999924
16 139.999924 0.000000 0.000060 -0.112341 13.908014 -0.893906 139.999924
[Rope4_Seg07]
15 139.999802 0.000000 0.000000 0.458728 7.114887 -1.496082 139.999802
16 139.999802 0.000000 0.000000 1.004104 10.980230 -0.736558 139.999802
[Rope4_Seg08]
15 139.999924 0.000000 0.000119 -1.140132 3.091368 -0.692102 139.999924
16 139.999924 0.000000 0.000119 -0.784505 4.624891 -0.346808 139.999924
[Rope4_Seg09]
15 90.185791 0.000060 0.000060 -135.617828 2.228885 0.850567 90.185791
16 90.185791 0.000060 0.000060 -135.617828 2.228885 0.850567 90.185791
[L_rear_hand01]
15 101.696655 -8.392275 -7.654577 -18.919886 -34.466530 118.185951 102.329041
16 101.696655 -8.392275 -7.654577 -16.606979 -35.526840 114.151619 102.329041
[L_rear_hand02]
15 102.726799 -1.568258 5.773216 77.226936 63.386848 164.679062 102.900848
16 102.726799 -1.568258 5.773216 75.446785 66.761177 162.720428 102.900848
[L_rear_hand03]
15 104.552910 9.721220 -10.420293 -173.780411 -23.916815 -115.646576 105.519653
16 104.552910 9.721220 -10.420293 -175.325211 -24.244322 -111.864204 105.519653
